<mxfile host="app.diagrams.net" agent="Mozilla/5.0 (Windows NT 10.0; Win64; x64) AppleWebKit/537.36 (KHTML, like Gecko) Chrome/137.0.0.0 Safari/537.36" version="27.1.6">
  <diagram name="Página-1" id="As-ylru9SlLK7KS7QaXn">
    <mxGraphModel grid="1" page="1" gridSize="10" guides="1" tooltips="1" connect="1" arrows="1" fold="1" pageScale="1" pageWidth="827" pageHeight="1169" math="0" shadow="0">
      <root>
        <mxCell id="0" />
        <mxCell id="1" parent="0" />
        <mxCell id="sEuESF4rzVyC_rkCTEI_-43" value="Administrador" style="html=1;whiteSpace=wrap;" vertex="1" parent="1">
          <mxGeometry x="151.5" y="144" width="110" height="50" as="geometry" />
        </mxCell>
        <mxCell id="sEuESF4rzVyC_rkCTEI_-44" value="Sistema&lt;span style=&quot;color: rgba(0, 0, 0, 0); font-family: monospace; font-size: 0px; text-align: start; text-wrap-mode: nowrap;&quot;&gt;%3CmxGraphModel%3E%3Croot%3E%3CmxCell%20id%3D%220%22%2F%3E%3CmxCell%20id%3D%221%22%20parent%3D%220%22%2F%3E%3CmxCell%20id%3D%222%22%20value%3D%22Usuario%22%20style%3D%22html%3D1%3BwhiteSpace%3Dwrap%3B%22%20vertex%3D%221%22%20parent%3D%221%22%3E%3CmxGeometry%20x%3D%2270%22%20y%3D%2240%22%20width%3D%22110%22%20height%3D%2250%22%20as%3D%22geometry%22%2F%3E%3C%2FmxCell%3E%3C%2Froot%3E%3C%2FmxGraphModel%3E&lt;/span&gt;" style="html=1;whiteSpace=wrap;" vertex="1" parent="1">
          <mxGeometry x="359" y="144" width="110" height="50" as="geometry" />
        </mxCell>
        <mxCell id="sEuESF4rzVyC_rkCTEI_-45" value="Base de datos" style="html=1;whiteSpace=wrap;" vertex="1" parent="1">
          <mxGeometry x="559" y="144" width="110" height="50" as="geometry" />
        </mxCell>
        <mxCell id="sEuESF4rzVyC_rkCTEI_-46" value="Administrador" style="html=1;whiteSpace=wrap;" vertex="1" parent="1">
          <mxGeometry x="157.75" y="1030" width="110" height="50" as="geometry" />
        </mxCell>
        <mxCell id="sEuESF4rzVyC_rkCTEI_-47" value="Sistema&lt;span style=&quot;color: rgba(0, 0, 0, 0); font-family: monospace; font-size: 0px; text-align: start; text-wrap-mode: nowrap;&quot;&gt;%3CmxGraphModel%3E%3Croot%3E%3CmxCell%20id%3D%220%22%2F%3E%3CmxCell%20id%3D%221%22%20parent%3D%220%22%2F%3E%3CmxCell%20id%3D%222%22%20value%3D%22Usuario%22%20style%3D%22html%3D1%3BwhiteSpace%3Dwrap%3B%22%20vertex%3D%221%22%20parent%3D%221%22%3E%3CmxGeometry%20x%3D%2270%22%20y%3D%2240%22%20width%3D%22110%22%20height%3D%2250%22%20as%3D%22geometry%22%2F%3E%3C%2FmxCell%3E%3C%2Froot%3E%3C%2FmxGraphModel%3E&lt;/span&gt;" style="html=1;whiteSpace=wrap;" vertex="1" parent="1">
          <mxGeometry x="356.5" y="1030" width="110" height="50" as="geometry" />
        </mxCell>
        <mxCell id="sEuESF4rzVyC_rkCTEI_-48" value="Base de datos" style="html=1;whiteSpace=wrap;" vertex="1" parent="1">
          <mxGeometry x="555.25" y="1030" width="110" height="50" as="geometry" />
        </mxCell>
        <mxCell id="sEuESF4rzVyC_rkCTEI_-50" value="" style="endArrow=none;dashed=1;html=1;rounded=0;entryX=0.5;entryY=1;entryDx=0;entryDy=0;exitX=0.5;exitY=0;exitDx=0;exitDy=0;" edge="1" parent="1" source="sEuESF4rzVyC_rkCTEI_-57" target="sEuESF4rzVyC_rkCTEI_-45">
          <mxGeometry width="50" height="50" relative="1" as="geometry">
            <mxPoint x="429" y="554" as="sourcePoint" />
            <mxPoint x="429" y="214" as="targetPoint" />
          </mxGeometry>
        </mxCell>
        <mxCell id="sEuESF4rzVyC_rkCTEI_-51" value="" style="endArrow=none;dashed=1;html=1;rounded=0;entryX=0.5;entryY=1;entryDx=0;entryDy=0;" edge="1" parent="1" source="sEuESF4rzVyC_rkCTEI_-47" target="sEuESF4rzVyC_rkCTEI_-44">
          <mxGeometry width="50" height="50" relative="1" as="geometry">
            <mxPoint x="389" y="424" as="sourcePoint" />
            <mxPoint x="439" y="374" as="targetPoint" />
          </mxGeometry>
        </mxCell>
        <mxCell id="sEuESF4rzVyC_rkCTEI_-53" value="" style="html=1;points=[[0,0,0,0,5],[0,1,0,0,-5],[1,0,0,0,5],[1,1,0,0,-5]];perimeter=orthogonalPerimeter;outlineConnect=0;targetShapes=umlLifeline;portConstraint=eastwest;newEdgeStyle={&quot;curved&quot;:0,&quot;rounded&quot;:0};" vertex="1" parent="1">
          <mxGeometry x="409" y="234" width="10" height="30" as="geometry" />
        </mxCell>
        <mxCell id="sEuESF4rzVyC_rkCTEI_-54" value="" style="endArrow=classic;html=1;rounded=0;entryX=0;entryY=0;entryDx=0;entryDy=5;entryPerimeter=0;" edge="1" parent="1" target="sEuESF4rzVyC_rkCTEI_-53">
          <mxGeometry width="50" height="50" relative="1" as="geometry">
            <mxPoint x="219" y="239" as="sourcePoint" />
            <mxPoint x="319" y="214" as="targetPoint" />
          </mxGeometry>
        </mxCell>
        <mxCell id="sEuESF4rzVyC_rkCTEI_-55" value="1. Pulsa apartado &quot;Administrar cuentas&quot;" style="text;html=1;align=center;verticalAlign=middle;whiteSpace=wrap;rounded=0;" vertex="1" parent="1">
          <mxGeometry x="226" y="214" width="170" height="20" as="geometry" />
        </mxCell>
        <mxCell id="sEuESF4rzVyC_rkCTEI_-56" value="" style="endArrow=none;dashed=1;html=1;rounded=0;entryX=0.5;entryY=1;entryDx=0;entryDy=0;exitX=0.5;exitY=0;exitDx=0;exitDy=0;" edge="1" parent="1" source="sEuESF4rzVyC_rkCTEI_-48" target="sEuESF4rzVyC_rkCTEI_-57">
          <mxGeometry width="50" height="50" relative="1" as="geometry">
            <mxPoint x="611.5" y="680" as="sourcePoint" />
            <mxPoint x="611.5" y="340" as="targetPoint" />
          </mxGeometry>
        </mxCell>
        <mxCell id="sEuESF4rzVyC_rkCTEI_-58" value="" style="endArrow=classic;html=1;rounded=0;entryX=1;entryY=0;entryDx=0;entryDy=5;entryPerimeter=0;edgeStyle=orthogonalEdgeStyle;" edge="1" parent="1">
          <mxGeometry width="50" height="50" relative="1" as="geometry">
            <mxPoint x="397.5" y="390" as="sourcePoint" />
            <mxPoint x="209" y="390" as="targetPoint" />
          </mxGeometry>
        </mxCell>
        <mxCell id="sEuESF4rzVyC_rkCTEI_-59" value="4. Muestra listado de cuentas" style="text;html=1;align=center;verticalAlign=middle;whiteSpace=wrap;rounded=0;" vertex="1" parent="1">
          <mxGeometry x="221.5" y="370" width="170" height="20" as="geometry" />
        </mxCell>
        <mxCell id="sEuESF4rzVyC_rkCTEI_-60" value="alt" style="shape=umlFrame;whiteSpace=wrap;html=1;pointerEvents=0;" vertex="1" parent="1">
          <mxGeometry x="196.5" y="670" width="430" height="160" as="geometry" />
        </mxCell>
        <mxCell id="sEuESF4rzVyC_rkCTEI_-76" value="11. Notificación de error: Datos inválidos" style="text;html=1;align=center;verticalAlign=middle;whiteSpace=wrap;rounded=0;" vertex="1" parent="1">
          <mxGeometry x="256" y="770" width="120" height="20" as="geometry" />
        </mxCell>
        <mxCell id="sEuESF4rzVyC_rkCTEI_-90" value="" style="endArrow=classic;html=1;rounded=0;fontSize=12;startSize=8;endSize=8;curved=1;entryX=0;entryY=0;entryDx=0;entryDy=5;entryPerimeter=0;" edge="1" parent="1" target="PIZJTlaF9zVv3FLmut8E-2">
          <mxGeometry width="50" height="50" relative="1" as="geometry">
            <mxPoint x="214" y="455" as="sourcePoint" />
            <mxPoint x="210.25" y="535" as="targetPoint" />
          </mxGeometry>
        </mxCell>
        <mxCell id="sEuESF4rzVyC_rkCTEI_-91" value="5. Pulsa botón &quot;editar cuenta&quot;" style="text;html=1;align=center;verticalAlign=middle;whiteSpace=wrap;rounded=0;" vertex="1" parent="1">
          <mxGeometry x="209" y="430" width="190" height="20" as="geometry" />
        </mxCell>
        <mxCell id="sEuESF4rzVyC_rkCTEI_-92" value="" style="endArrow=classic;html=1;rounded=0;fontSize=12;startSize=8;endSize=8;curved=1;entryX=0;entryY=0;entryDx=0;entryDy=5;entryPerimeter=0;" edge="1" parent="1" target="rNEecWrONa_Ac2TW8NI7-1">
          <mxGeometry width="50" height="50" relative="1" as="geometry">
            <mxPoint x="221.5" y="614.58" as="sourcePoint" />
            <mxPoint x="401.5" y="614.58" as="targetPoint" />
          </mxGeometry>
        </mxCell>
        <mxCell id="sEuESF4rzVyC_rkCTEI_-97" value="8. Pulsar botón &quot;Guardar&quot;" style="text;html=1;align=center;verticalAlign=middle;whiteSpace=wrap;rounded=0;" vertex="1" parent="1">
          <mxGeometry x="234.5" y="590" width="148" height="20" as="geometry" />
        </mxCell>
        <mxCell id="sEuESF4rzVyC_rkCTEI_-98" value="9. Válidar los datos" style="text;html=1;align=center;verticalAlign=middle;whiteSpace=wrap;rounded=0;" vertex="1" parent="1">
          <mxGeometry x="436.5" y="620" width="140" height="20" as="geometry" />
        </mxCell>
        <mxCell id="sEuESF4rzVyC_rkCTEI_-100" value="" style="endArrow=classic;html=1;rounded=0;fontSize=12;startSize=8;endSize=8;curved=1;entryX=0;entryY=0;entryDx=0;entryDy=5;entryPerimeter=0;" edge="1" parent="1" source="sEuESF4rzVyC_rkCTEI_-57">
          <mxGeometry width="50" height="50" relative="1" as="geometry">
            <mxPoint x="412.75" y="650" as="sourcePoint" />
            <mxPoint x="602.75" y="650" as="targetPoint" />
          </mxGeometry>
        </mxCell>
        <mxCell id="sEuESF4rzVyC_rkCTEI_-101" value="" style="endArrow=classic;html=1;rounded=0;fontSize=12;startSize=8;endSize=8;curved=1;" edge="1" parent="1" target="sEuESF4rzVyC_rkCTEI_-57">
          <mxGeometry width="50" height="50" relative="1" as="geometry">
            <mxPoint x="412.75" y="650" as="sourcePoint" />
            <mxPoint x="602.75" y="650" as="targetPoint" />
          </mxGeometry>
        </mxCell>
        <mxCell id="sEuESF4rzVyC_rkCTEI_-57" value="" style="html=1;points=[[0,0,0,0,5],[0,1,0,0,-5],[1,0,0,0,5],[1,1,0,0,-5]];perimeter=orthogonalPerimeter;outlineConnect=0;targetShapes=umlLifeline;portConstraint=eastwest;newEdgeStyle={&quot;curved&quot;:0,&quot;rounded&quot;:0};" vertex="1" parent="1">
          <mxGeometry x="606.5" y="640" width="10" height="30" as="geometry" />
        </mxCell>
        <mxCell id="sEuESF4rzVyC_rkCTEI_-61" value="[Datos inválidos]" style="text;html=1;align=center;verticalAlign=middle;whiteSpace=wrap;rounded=0;" vertex="1" parent="1">
          <mxGeometry x="352.75" y="680" width="117.5" height="30" as="geometry" />
        </mxCell>
        <mxCell id="sEuESF4rzVyC_rkCTEI_-128" value="" style="endArrow=classic;html=1;rounded=0;fontSize=12;startSize=8;endSize=8;curved=1;entryX=1;entryY=0;entryDx=0;entryDy=5;entryPerimeter=0;dashed=1;" edge="1" parent="1" target="rNEecWrONa_Ac2TW8NI7-13">
          <mxGeometry width="50" height="50" relative="1" as="geometry">
            <mxPoint x="396" y="795" as="sourcePoint" />
            <mxPoint x="216" y="800" as="targetPoint" />
          </mxGeometry>
        </mxCell>
        <mxCell id="sEuESF4rzVyC_rkCTEI_-138" value="" style="endArrow=classic;html=1;rounded=0;fontSize=12;startSize=8;endSize=8;curved=1;entryX=0;entryY=0;entryDx=0;entryDy=5;entryPerimeter=0;" edge="1" parent="1" target="sEuESF4rzVyC_rkCTEI_-139">
          <mxGeometry width="50" height="50" relative="1" as="geometry">
            <mxPoint x="420" y="875" as="sourcePoint" />
            <mxPoint x="597.75" y="880" as="targetPoint" />
          </mxGeometry>
        </mxCell>
        <mxCell id="sEuESF4rzVyC_rkCTEI_-139" value="" style="html=1;points=[[0,0,0,0,5],[0,1,0,0,-5],[1,0,0,0,5],[1,1,0,0,-5]];perimeter=orthogonalPerimeter;outlineConnect=0;targetShapes=umlLifeline;portConstraint=eastwest;newEdgeStyle={&quot;curved&quot;:0,&quot;rounded&quot;:0};" vertex="1" parent="1">
          <mxGeometry x="605.25" y="870" width="10" height="30" as="geometry" />
        </mxCell>
        <mxCell id="sEuESF4rzVyC_rkCTEI_-141" value="12. Guarda el cambio" style="text;html=1;align=center;verticalAlign=middle;resizable=0;points=[];autosize=1;strokeColor=none;fillColor=none;" vertex="1" parent="1">
          <mxGeometry x="435.25" y="850" width="140" height="30" as="geometry" />
        </mxCell>
        <mxCell id="PIZJTlaF9zVv3FLmut8E-2" value="" style="html=1;points=[[0,0,0,0,5],[0,1,0,0,-5],[1,0,0,0,5],[1,1,0,0,-5]];perimeter=orthogonalPerimeter;outlineConnect=0;targetShapes=umlLifeline;portConstraint=eastwest;newEdgeStyle={&quot;curved&quot;:0,&quot;rounded&quot;:0};" vertex="1" parent="1">
          <mxGeometry x="404" y="450" width="10" height="30" as="geometry" />
        </mxCell>
        <mxCell id="rNEecWrONa_Ac2TW8NI7-1" value="" style="html=1;points=[[0,0,0,0,5],[0,1,0,0,-5],[1,0,0,0,5],[1,1,0,0,-5]];perimeter=orthogonalPerimeter;outlineConnect=0;targetShapes=umlLifeline;portConstraint=eastwest;newEdgeStyle={&quot;curved&quot;:0,&quot;rounded&quot;:0};" vertex="1" parent="1">
          <mxGeometry x="404" y="610" width="10" height="30" as="geometry" />
        </mxCell>
        <mxCell id="rNEecWrONa_Ac2TW8NI7-3" value="" style="endArrow=classic;html=1;rounded=0;fontSize=12;startSize=8;endSize=8;curved=1;entryX=1;entryY=0;entryDx=0;entryDy=5;entryPerimeter=0;" edge="1" parent="1" target="rNEecWrONa_Ac2TW8NI7-5">
          <mxGeometry width="50" height="50" relative="1" as="geometry">
            <mxPoint x="406.5" y="515" as="sourcePoint" />
            <mxPoint x="401.5" y="514.58" as="targetPoint" />
          </mxGeometry>
        </mxCell>
        <mxCell id="rNEecWrONa_Ac2TW8NI7-4" value="6. Mostrar formulario" style="text;html=1;align=center;verticalAlign=middle;whiteSpace=wrap;rounded=0;" vertex="1" parent="1">
          <mxGeometry x="234.5" y="490" width="148" height="20" as="geometry" />
        </mxCell>
        <mxCell id="rNEecWrONa_Ac2TW8NI7-6" value="" style="endArrow=none;dashed=1;html=1;rounded=0;" edge="1" parent="1" source="sEuESF4rzVyC_rkCTEI_-46" target="sEuESF4rzVyC_rkCTEI_-43">
          <mxGeometry width="50" height="50" relative="1" as="geometry">
            <mxPoint x="211.5" y="1110" as="sourcePoint" />
            <mxPoint x="206.5" y="450" as="targetPoint" />
          </mxGeometry>
        </mxCell>
        <mxCell id="rNEecWrONa_Ac2TW8NI7-5" value="" style="html=1;points=[[0,0,0,0,5],[0,1,0,0,-5],[1,0,0,0,5],[1,1,0,0,-5]];perimeter=orthogonalPerimeter;outlineConnect=0;targetShapes=umlLifeline;portConstraint=eastwest;newEdgeStyle={&quot;curved&quot;:0,&quot;rounded&quot;:0};" vertex="1" parent="1">
          <mxGeometry x="201.5" y="510" width="10" height="30" as="geometry" />
        </mxCell>
        <mxCell id="rNEecWrONa_Ac2TW8NI7-10" value="" style="endArrow=classic;html=1;rounded=0;fontSize=12;startSize=8;endSize=8;curved=1;entryX=0;entryY=0;entryDx=0;entryDy=5;entryPerimeter=0;" edge="1" parent="1" target="rNEecWrONa_Ac2TW8NI7-12">
          <mxGeometry width="50" height="50" relative="1" as="geometry">
            <mxPoint x="221.5" y="564.58" as="sourcePoint" />
            <mxPoint x="401.5" y="564.58" as="targetPoint" />
          </mxGeometry>
        </mxCell>
        <mxCell id="rNEecWrONa_Ac2TW8NI7-11" value="7. Diligenciar formulario" style="text;html=1;align=center;verticalAlign=middle;whiteSpace=wrap;rounded=0;" vertex="1" parent="1">
          <mxGeometry x="234.5" y="540" width="148" height="20" as="geometry" />
        </mxCell>
        <mxCell id="rNEecWrONa_Ac2TW8NI7-12" value="" style="html=1;points=[[0,0,0,0,5],[0,1,0,0,-5],[1,0,0,0,5],[1,1,0,0,-5]];perimeter=orthogonalPerimeter;outlineConnect=0;targetShapes=umlLifeline;portConstraint=eastwest;newEdgeStyle={&quot;curved&quot;:0,&quot;rounded&quot;:0};" vertex="1" parent="1">
          <mxGeometry x="404" y="560" width="10" height="30" as="geometry" />
        </mxCell>
        <mxCell id="rNEecWrONa_Ac2TW8NI7-13" value="" style="html=1;points=[[0,0,0,0,5],[0,1,0,0,-5],[1,0,0,0,5],[1,1,0,0,-5]];perimeter=orthogonalPerimeter;outlineConnect=0;targetShapes=umlLifeline;portConstraint=eastwest;newEdgeStyle={&quot;curved&quot;:0,&quot;rounded&quot;:0};" vertex="1" parent="1">
          <mxGeometry x="206" y="790" width="10" height="30" as="geometry" />
        </mxCell>
        <mxCell id="rNEecWrONa_Ac2TW8NI7-20" value="" style="endArrow=classic;html=1;rounded=0;fontSize=12;startSize=8;endSize=8;curved=1;entryX=1;entryY=0;entryDx=0;entryDy=5;entryPerimeter=0;" edge="1" parent="1" target="rNEecWrONa_Ac2TW8NI7-22">
          <mxGeometry width="50" height="50" relative="1" as="geometry">
            <mxPoint x="605.25" y="935" as="sourcePoint" />
            <mxPoint x="610.25" y="934.5799999999999" as="targetPoint" />
          </mxGeometry>
        </mxCell>
        <mxCell id="rNEecWrONa_Ac2TW8NI7-21" value="13. Cuenta editada con éxito&amp;nbsp;" style="text;html=1;align=center;verticalAlign=middle;whiteSpace=wrap;rounded=0;" vertex="1" parent="1">
          <mxGeometry x="443.25" y="910" width="148" height="20" as="geometry" />
        </mxCell>
        <mxCell id="rNEecWrONa_Ac2TW8NI7-22" value="" style="html=1;points=[[0,0,0,0,5],[0,1,0,0,-5],[1,0,0,0,5],[1,1,0,0,-5]];perimeter=orthogonalPerimeter;outlineConnect=0;targetShapes=umlLifeline;portConstraint=eastwest;newEdgeStyle={&quot;curved&quot;:0,&quot;rounded&quot;:0};" vertex="1" parent="1">
          <mxGeometry x="410.25" y="930" width="10" height="30" as="geometry" />
        </mxCell>
        <mxCell id="rNEecWrONa_Ac2TW8NI7-23" value="" style="endArrow=classic;html=1;rounded=0;fontSize=12;startSize=8;endSize=8;curved=1;entryX=1;entryY=0;entryDx=0;entryDy=5;entryPerimeter=0;dashed=1;" edge="1" parent="1" target="rNEecWrONa_Ac2TW8NI7-25">
          <mxGeometry width="50" height="50" relative="1" as="geometry">
            <mxPoint x="402.75" y="985" as="sourcePoint" />
            <mxPoint x="407.75" y="984.5799999999999" as="targetPoint" />
          </mxGeometry>
        </mxCell>
        <mxCell id="rNEecWrONa_Ac2TW8NI7-24" value="14. Notificación de éxito: Cuenta editada correctamente" style="text;html=1;align=center;verticalAlign=middle;whiteSpace=wrap;rounded=0;" vertex="1" parent="1">
          <mxGeometry x="225.75" y="960" width="164.5" height="20" as="geometry" />
        </mxCell>
        <mxCell id="rNEecWrONa_Ac2TW8NI7-25" value="" style="html=1;points=[[0,0,0,0,5],[0,1,0,0,-5],[1,0,0,0,5],[1,1,0,0,-5]];perimeter=orthogonalPerimeter;outlineConnect=0;targetShapes=umlLifeline;portConstraint=eastwest;newEdgeStyle={&quot;curved&quot;:0,&quot;rounded&quot;:0};" vertex="1" parent="1">
          <mxGeometry x="207.75" y="980" width="10" height="30" as="geometry" />
        </mxCell>
        <mxCell id="k8qL8TnDpMVpf1mI0kJp-4" value="" style="endArrow=classic;html=1;rounded=0;entryX=1;entryY=0;entryDx=0;entryDy=5;entryPerimeter=0;edgeStyle=orthogonalEdgeStyle;" edge="1" parent="1">
          <mxGeometry width="50" height="50" relative="1" as="geometry">
            <mxPoint x="610" y="350" as="sourcePoint" />
            <mxPoint x="416.5" y="350" as="targetPoint" />
          </mxGeometry>
        </mxCell>
        <mxCell id="k8qL8TnDpMVpf1mI0kJp-5" value="2. Envía listado de cuentas" style="text;html=1;align=center;verticalAlign=middle;whiteSpace=wrap;rounded=0;" vertex="1" parent="1">
          <mxGeometry x="429" y="330" width="170" height="20" as="geometry" />
        </mxCell>
        <mxCell id="k8qL8TnDpMVpf1mI0kJp-6" value="" style="html=1;points=[[0,0,0,0,5],[0,1,0,0,-5],[1,0,0,0,5],[1,1,0,0,-5]];perimeter=orthogonalPerimeter;outlineConnect=0;targetShapes=umlLifeline;portConstraint=eastwest;newEdgeStyle={&quot;curved&quot;:0,&quot;rounded&quot;:0};" vertex="1" parent="1">
          <mxGeometry x="409" y="340" width="10" height="30" as="geometry" />
        </mxCell>
        <mxCell id="k8qL8TnDpMVpf1mI0kJp-7" value="" style="endArrow=classic;html=1;rounded=0;fontSize=12;startSize=8;endSize=8;curved=1;entryX=0;entryY=0;entryDx=0;entryDy=5;entryPerimeter=0;" edge="1" parent="1" target="k8qL8TnDpMVpf1mI0kJp-9">
          <mxGeometry width="50" height="50" relative="1" as="geometry">
            <mxPoint x="416.5" y="305" as="sourcePoint" />
            <mxPoint x="412.75" y="385" as="targetPoint" />
          </mxGeometry>
        </mxCell>
        <mxCell id="k8qL8TnDpMVpf1mI0kJp-8" value="3. Solicita listado de cuentas" style="text;html=1;align=center;verticalAlign=middle;whiteSpace=wrap;rounded=0;" vertex="1" parent="1">
          <mxGeometry x="419" y="280" width="190" height="20" as="geometry" />
        </mxCell>
        <mxCell id="k8qL8TnDpMVpf1mI0kJp-9" value="" style="html=1;points=[[0,0,0,0,5],[0,1,0,0,-5],[1,0,0,0,5],[1,1,0,0,-5]];perimeter=orthogonalPerimeter;outlineConnect=0;targetShapes=umlLifeline;portConstraint=eastwest;newEdgeStyle={&quot;curved&quot;:0,&quot;rounded&quot;:0};" vertex="1" parent="1">
          <mxGeometry x="606.5" y="300" width="10" height="30" as="geometry" />
        </mxCell>
        <mxCell id="sEuESF4rzVyC_rkCTEI_-86" value="" style="html=1;points=[[0,0,0,0,5],[0,1,0,0,-5],[1,0,0,0,5],[1,1,0,0,-5]];perimeter=orthogonalPerimeter;outlineConnect=0;targetShapes=umlLifeline;portConstraint=eastwest;newEdgeStyle={&quot;curved&quot;:0,&quot;rounded&quot;:0};" vertex="1" parent="1">
          <mxGeometry x="201.5" y="380" width="10" height="30" as="geometry" />
        </mxCell>
        <mxCell id="k8qL8TnDpMVpf1mI0kJp-19" style="rounded=0;orthogonalLoop=1;jettySize=auto;html=1;edgeStyle=orthogonalEdgeStyle;" edge="1" parent="1" target="k8qL8TnDpMVpf1mI0kJp-17">
          <mxGeometry relative="1" as="geometry">
            <mxPoint x="412" y="730" as="sourcePoint" />
            <Array as="points">
              <mxPoint x="412" y="730" />
              <mxPoint x="437" y="730" />
              <mxPoint x="437" y="765" />
            </Array>
          </mxGeometry>
        </mxCell>
        <mxCell id="k8qL8TnDpMVpf1mI0kJp-17" value="" style="html=1;points=[[0,0,0,0,5],[0,1,0,0,-5],[1,0,0,0,5],[1,1,0,0,-5]];perimeter=orthogonalPerimeter;outlineConnect=0;targetShapes=umlLifeline;portConstraint=eastwest;newEdgeStyle={&quot;curved&quot;:0,&quot;rounded&quot;:0};" vertex="1" parent="1">
          <mxGeometry x="406.5" y="750" width="10" height="30" as="geometry" />
        </mxCell>
        <mxCell id="k8qL8TnDpMVpf1mI0kJp-20" value="10. Datos inválidos" style="text;html=1;align=center;verticalAlign=middle;whiteSpace=wrap;rounded=0;" vertex="1" parent="1">
          <mxGeometry x="446.5" y="740" width="120" height="20" as="geometry" />
        </mxCell>
      </root>
    </mxGraphModel>
  </diagram>
</mxfile>
